<?xml version="1.0" encoding="UTF-8"?>
<svg id="layer" xmlns="http://www.w3.org/2000/svg" viewBox="0 0 233.12 82.17">
  <defs>
    <style>
      .cls-1 {
        fill: #00bdda;
      }

      .cls-2 {
        fill: #ff0096;
      }
    </style>
  </defs>
  <path class="cls-2" d="M8.51,70l-.96-3.93-2.35,3.93h3.31ZM12.19,74.24h-2.65l-.62-2.55h-4.75l-1.53,2.55H0l6.09-10.19c.46-.75,1.12-1.13,2.01-1.13.38,0,.71.1,1.02.3.3.2.49.47.58.83l2.49,10.19Z"/>
  <path class="cls-2" d="M24.32,65.55c0,.95-.58,1.81-1.74,2.57-.92.61-1.95,1.02-3.07,1.23l3.72,4.88h-2.97l-2.85-3.66c-.36-.47-.55-.81-.55-1.04,0-.6.42-1.07,1.26-1.43.78-.27,1.56-.54,2.35-.82.84-.36,1.26-.83,1.26-1.41,0-.39-.23-.7-.68-.95-.39-.2-.79-.29-1.22-.29h-2.55l-1.7,9.61h-2.55l1.8-10.19c.07-.33.31-.62.75-.85.39-.19.78-.28,1.16-.28h3.4c.91,0,1.79.21,2.63.63,1.03.51,1.54,1.19,1.54,2"/>
  <path class="cls-2" d="M34.72,62.92l-.31,1.69h-5.73l-.54,3.12h3.61l-.3,1.7h-3.62l-.53,3.11h5.73l-.31,1.7h-6.57c-.34,0-.66-.09-.96-.24-.36-.2-.54-.46-.54-.76v-.13s1.61-9.05,1.61-9.05c.07-.33.31-.62.75-.85.39-.19.77-.28,1.16-.28h6.57Z"/>
  <path class="cls-2" d="M46.01,62.92l-1.8,10.18c-.12.56-.56.85-.68.92-.11.07-.42.21-1.12.22-.42,0-.85-.41-1.22-1.22l-2.68-5.9-1.3,7.11h-2.55l1.8-10.19c.07-.33.3-.61.7-.83.36-.2.72-.29,1.08-.29.64,0,1.13.54,1.46,1.29l2.54,5.65,1.21-6.94h2.55Z"/>
  <path class="cls-2" d="M53.31,70l-.96-3.93-2.36,3.93h3.31ZM56.99,74.24h-2.65l-.62-2.55h-4.75l-1.54,2.55h-2.64l6.09-10.19c.46-.75,1.12-1.13,2.01-1.13.38,0,.71.1,1.02.3.3.2.49.47.58.83l2.5,10.19Z"/>
  <path class="cls-1" d="M25.11,78.23v.13h-1.19c0-.21-.09-.37-.29-.49-.16-.11-.36-.16-.58-.16s-.45.06-.66.16c-.26.13-.4.29-.44.49l-.42,2.36v.08c0,.18.09.32.3.44.18.09.37.13.57.13.23,0,.44-.06.65-.17.23-.12.38-.28.45-.48h1.18c-.09.44-.42.79-.97,1.07-.47.25-.97.37-1.46.37-.43,0-.84-.1-1.23-.3-.47-.25-.69-.57-.69-.97v-.17s.44-2.36.44-2.36c.08-.43.39-.79.96-1.07.48-.25.97-.37,1.46-.37.45,0,.85.1,1.23.32.47.26.69.59.69,1"/>
  <polygon class="cls-1" points="27.53 76.92 26.6 82.17 25.43 82.17 26.35 76.92 27.53 76.92"/>
  <path class="cls-1" d="M33.02,76.92l-.84,4.73c-.03.15-.14.28-.33.39-.16.09-.33.13-.5.13-.29,0-.52-.17-.67-.53l-1.18-2.66-.56,3.19h-1.18l.84-4.73c.03-.15.14-.28.33-.39.16-.09.33-.14.5-.14.29,0,.52.17.67.52l1.18,2.66.56-3.18h1.18Z"/>
  <path class="cls-1" d="M37.93,76.92l-.14.79h-2.66l-.25,1.44h1.67l-.14.79h-1.68l-.25,1.44h2.66l-.14.79h-3.06c-.16,0-.3-.04-.45-.11-.16-.09-.25-.21-.25-.35v-.07l.74-4.2c.03-.16.14-.28.34-.39.18-.09.36-.13.54-.13h3.06Z"/>
  <path class="cls-1" d="M45.26,77.38v.07l-.84,4.73h-1.18l.53-2.99-1.77,2.46c-.25.35-.54.53-.88.53s-.57-.18-.69-.53l-.89-2.46-.53,2.99h-1.18l.84-4.73c.03-.15.14-.28.33-.39.16-.09.33-.14.5-.14.32,0,.55.17.67.52l1.21,3.33,2.38-3.33c.25-.35.53-.52.86-.52l.42.11.21.35"/>
  <path class="cls-1" d="M48.95,80.2l-.45-1.82-1.09,1.82h1.54ZM50.65,82.17h-1.23l-.28-1.18h-2.2l-.71,1.18h-1.23l2.82-4.73c.21-.35.52-.52.93-.52.17,0,.33.05.47.14s.23.22.27.38l1.16,4.73Z"/>
  <path class="cls-1" d="M55.85,78.23v.13h-1.2c0-.21-.1-.37-.29-.49-.16-.11-.36-.16-.58-.16-.27,0-.51.08-.73.23-.27.17-.4.39-.4.64,0,.18.1.32.31.44.18.09.37.13.56.13.43,0,.84.1,1.23.31.47.25.69.57.69.97,0,.53-.28.97-.86,1.31-.49.29-1.03.44-1.61.44-.44,0-.85-.1-1.23-.32-.46-.26-.68-.58-.68-.99v-.13h1.19c0,.21.09.37.29.49.17.1.36.16.58.16.26,0,.5-.08.73-.23.27-.17.39-.39.39-.64,0-.18-.1-.32-.31-.44-.18-.09-.37-.13-.57-.13-.43,0-.84-.1-1.23-.31-.47-.25-.69-.57-.69-.97,0-.53.28-.97.86-1.31.49-.29,1.04-.44,1.61-.44.45,0,.85.1,1.23.32.48.25.71.58.71.99"/>
  <path class="cls-2" d="M37.72,41.87l-3.18-13.04-7.78,13.04h10.96ZM49.91,55.96h-8.79l-2.05-8.44h-15.75l-5.07,8.44h-8.76L29.68,22.15c1.51-2.49,3.72-3.75,6.68-3.75,1.26,0,2.36.35,3.37,1.01,1.01.66,1.64,1.58,1.92,2.74l8.25,33.8Z"/>
  <path class="cls-1" d="M42.54,8.04l-1.09-4.47-2.66,4.47h3.75ZM46.72,12.87h-3.01l-.7-2.89h-5.39l-1.74,2.89h-3l6.92-11.58C40.31.44,41.07,0,42.08,0c.43,0,.81.12,1.15.35.35.23.56.54.66.94l2.83,11.58Z"/>
  <path class="cls-2" d="M205.8,18.4l-5.99,33.77c-.41,1.86-1.86,2.84-2.27,3.06-.38.22-1.39.69-3.72.72-1.39,0-2.84-1.35-4.03-4.03l-8.88-19.56-4.32,23.6h-8.44l5.99-33.8c.22-1.1,1.01-2.02,2.33-2.74,1.2-.66,2.39-.98,3.59-.98,2.11,0,3.75,1.8,4.85,4.28l8.41,18.74,4-23.03h8.47v-.03Z"/>
  <path class="cls-1" d="M60.11,0l-2.05,11.57c-.14.64-.64.97-.78,1.05-.13.08-.47.24-1.27.25-.47,0-.97-.46-1.38-1.38l-3.04-6.7-1.48,8.08h-2.89l2.05-11.58c.08-.38.35-.69.8-.94.41-.23.82-.33,1.23-.33.72,0,1.28.61,1.66,1.47l2.88,6.42L57.21.02h2.9Z"/>
  <path class="cls-2" d="M108.04,18.42h-16.21c-1.98,0-3.68,1.41-4.04,3.36h0s-.42,2.25-.42,2.25h11.69l-4.97,28.16-.03.44c0,1.01.6,1.86,1.8,2.52.98.5,4.95.79,6.09.79l.94-5.64,2.8-15.94,1.8-10.33h8.27c1.89,0,3.51-1.35,3.85-3.2h0s.45-2.41.45-2.41h-12.01Z"/>
  <g>
    <polygon class="cls-2" points="123.2 18.4 119.24 41.18 116.62 55.96 125.07 55.96 129.06 33.11 131.67 18.4 123.2 18.4"/>
    <polygon class="cls-2" points="131.67 18.37 131.67 18.4 131.67 18.4 131.67 18.37"/>
  </g>
  <path class="cls-2" d="M86.37,27.82l-.07.95h-8.43c0-1.5-.68-2.65-2.11-3.53-1.16-.82-2.58-1.16-4.15-1.16s-3.19.41-4.76,1.16c-1.84.95-2.85,2.11-3.13,3.53l-2.99,16.92-.07.54c0,1.29.75,2.31,2.24,3.13,1.29.68,2.65.95,4.08.95,1.63,0,3.13-.41,4.62-1.22,1.63-.88,2.72-2.04,3.19-3.47h8.43c-.68,3.13-2.99,5.64-6.93,7.68-3.4,1.77-6.93,2.65-10.47,2.65-3.06,0-5.98-.75-8.77-2.17-3.33-1.77-4.96-4.08-4.96-6.93l.07-1.22,3.06-16.92c.54-3.06,2.79-5.64,6.86-7.68,3.47-1.77,6.93-2.65,10.47-2.65,3.19,0,6.12.75,8.84,2.31,3.33,1.84,4.96,4.21,4.96,7.14"/>
  <path class="cls-2" d="M167.48,27.82c0-2.92-1.63-5.3-4.96-7.14-2.72-1.56-5.64-2.31-8.84-2.31-3.53,0-7,.88-10.47,2.65-4.08,2.04-6.32,4.62-6.86,7.68l-3.06,16.92-.07,1.22c0,2.85,1.63,5.17,4.96,6.93,2.79,1.43,5.71,2.18,8.77,2.18,3.53,0,7.07-.88,10.47-2.65,3.78-1.96,6.06-4.35,6.84-7.31.02,0,.02-.01.02-.01l.06-.3s.01-.04.01-.06h0l3.06-16.86.07-.95ZM158.94,28.99l-3.01,16.63h0c-.48,1.43-1.56,2.58-3.19,3.47-1.5.82-2.99,1.22-4.62,1.22-1.43,0-2.79-.27-4.08-.95-1.5-.82-2.24-1.84-2.24-3.13l.07-.54,2.99-16.92c.27-1.43,1.29-2.58,3.13-3.53,1.56-.75,3.13-1.16,4.76-1.16s2.99.34,4.15,1.16c1.43.88,2.11,2.04,2.11,3.53h.02c-.02.07-.05.15-.06.23Z"/>
  <path class="cls-1" d="M72.5,3.24c0-1-.56-1.82-1.7-2.44-.93-.54-1.93-.79-3.03-.79-.08,0-.16,0-.24,0h-2.19s-2.9,0-2.9,0l-2.3,12.85s4.27,0,5.32,0c1.21,0,2.42-.3,3.58-.91,1.3-.67,2.08-1.49,2.34-2.5,0,0,0,0,0,0l.02-.1s0-.01,0-.02h0l1.05-5.77.02-.33ZM69.57,3.64l-1.03,5.7h0c-.16.49-.54.88-1.09,1.19-.51.28-1.02.42-1.58.42h-2.46l1.59-8.98h2.45c.54,0,1.02.12,1.42.4.49.3.72.7.72,1.21h0s-.02.05-.02.08Z"/>
  <polygon class="cls-1" points="92.3 12.5 100.74 12.5 102.93 0 94.5 0 92.3 12.5"/>
  <polygon class="cls-1" points="76.02 12.5 84.46 12.5 86.65 0 78.22 0 76.02 12.5"/>
  <polygon class="cls-1" points="108.57 12.5 117.01 12.5 119.2 0 110.77 0 108.57 12.5"/>
  <polygon class="cls-1" points="124.85 12.5 133.29 12.5 135.48 0 127.05 0 124.85 12.5"/>
  <polygon class="cls-1" points="141.12 12.5 149.56 12.5 151.75 0 143.32 0 141.12 12.5"/>
  <polygon class="cls-1" points="157.39 12.5 165.84 12.5 168.03 0 159.6 0 157.39 12.5"/>
  <polygon class="cls-1" points="173.67 12.5 182.11 12.5 184.3 0 175.87 0 173.67 12.5"/>
  <polygon class="cls-1" points="189.94 12.5 198.39 12.5 200.57 0 192.14 0 189.94 12.5"/>
  <polygon class="cls-1" points="206.22 12.5 214.66 12.5 216.85 0 208.42 0 206.22 12.5"/>
  <polygon class="cls-1" points="81.19 74.28 89.63 74.28 91.82 61.78 83.39 61.78 81.19 74.28"/>
  <polygon class="cls-1" points="64.92 74.28 73.36 74.28 75.55 61.78 67.12 61.78 64.92 74.28"/>
  <polygon class="cls-1" points="97.47 74.28 105.91 74.28 108.1 61.78 99.67 61.78 97.47 74.28"/>
  <polygon class="cls-1" points="113.74 74.28 122.18 74.28 124.37 61.78 115.94 61.78 113.74 74.28"/>
  <polygon class="cls-1" points="130.02 74.28 138.46 74.28 140.65 61.78 132.22 61.78 130.02 74.28"/>
  <polygon class="cls-1" points="146.29 74.28 154.73 74.28 156.92 61.78 148.49 61.78 146.29 74.28"/>
  <polygon class="cls-1" points="162.56 74.28 171.01 74.28 173.19 61.78 164.76 61.78 162.56 74.28"/>
  <polygon class="cls-1" points="178.84 74.28 187.28 74.28 189.47 61.78 181.04 61.78 178.84 74.28"/>
  <polygon class="cls-1" points="195.11 74.28 203.56 74.28 205.74 61.78 197.31 61.78 195.11 74.28"/>
  <g>
    <polygon class="cls-2" points="217.92 40.07 215.32 54.85 223.74 54.85 227.74 32 233.12 0 224.65 0 217.92 40.07"/>
    <polygon class="cls-2" points="211.89 74.31 220.34 74.31 222.52 61.81 214.09 61.81 211.89 74.31"/>
    <polygon class="cls-2" points="230.35 17.29 230.35 17.26 230.35 17.29 230.35 17.29"/>
  </g>
</svg>