<?xml version="1.0" encoding="utf-8"?>
<!-- Generator: Adobe Illustrator 19.2.1, SVG Export Plug-In . SVG Version: 6.00 Build 0)  -->
<svg version="1.1" id="layer" xmlns="http://www.w3.org/2000/svg" xmlns:xlink="http://www.w3.org/1999/xlink" x="0px" y="0px"
	 viewBox="0 0 652 652" style="enable-background:new 0 0 652 652;" xml:space="preserve">
<style type="text/css">
	.st0{fill:#D40075;}
	.st1{fill:#9D9D9C;}
</style>
<path class="st0" d="M115.2,300.3l-10.1-41.4l-24.7,41.4H115.2z M153.9,345h-27.9l-6.5-26.8h-50L53.4,345H25.6l64.1-107.3
	c4.8-7.9,11.8-11.9,21.2-11.9c4,0,7.5,1.1,10.7,3.2c3.2,2.1,5.2,5,6.1,8.7L153.9,345z"/>
<path class="st0" d="M281.7,253.5c0,10-6.1,19.1-18.3,27.1c-9.7,6.4-20.5,10.7-32.3,12.9l39.2,51.4h-31.3L209,306.4
	c-3.8-4.9-5.8-8.5-5.8-11c0-6.3,4.4-11.3,13.3-15.1c8.2-2.8,16.4-5.7,24.7-8.6c8.8-3.8,13.3-8.7,13.3-14.8c0-4.1-2.4-7.4-7.2-10
	c-4.1-2.1-8.3-3.1-12.8-3.1h-26.8L189.8,345H163l18.9-107.3c0.7-3.5,3.3-6.5,7.9-8.9c4.1-2,8.2-3,12.2-3h35.8
	c9.6,0,18.8,2.2,27.7,6.6C276.3,237.8,281.7,244.9,281.7,253.5"/>
<path class="st0" d="M391.2,225.8l-3.3,17.8h-60.3l-5.7,32.8h38l-3.2,17.9h-38.1l-5.6,32.7h60.3l-3.3,17.9h-69.2
	c-3.6,0-7-0.9-10.1-2.5c-3.8-2.1-5.7-4.8-5.7-8l0.1-1.4l16.8-95.3c0.7-3.5,3.3-6.5,7.9-8.9c4.1-2,8.1-3,12.2-3H391.2z"/>
<path class="st0" d="M510,225.8L491,333c-1.3,5.9-5.9,9-7.2,9.7c-1.2,0.7-4.4,2.2-11.8,2.3c-4.4,0-9-4.3-12.8-12.8L431,270.1
	L417.3,345h-26.8l19-107.3c0.7-3.5,3.2-6.4,7.4-8.7c3.8-2.1,7.6-3.1,11.4-3.1c6.7,0,11.9,5.7,15.4,13.6l26.7,59.5l12.7-73.1H510z"/>
<path class="st0" d="M586.9,300.3l-10.1-41.4L552,300.3H586.9z M625.6,345h-27.9l-6.5-26.8h-50L525,345h-27.8l64.1-107.3
	c4.8-7.9,11.8-11.9,21.2-11.9c4,0,7.5,1.1,10.7,3.2c3.2,2.1,5.2,5,6.1,8.7L625.6,345z"/>
<path class="st1" d="M290,387l-0.1,1.4h-12.4c0-2.2-1-3.9-3.1-5.2c-1.7-1.2-3.8-1.7-6.1-1.7c-2.4,0-4.7,0.6-7,1.7
	c-2.7,1.4-4.2,3.1-4.6,5.2l-4.4,24.9l-0.1,0.8c0,1.9,1.1,3.4,3.3,4.6c1.9,1,3.9,1.4,6,1.4c2.4,0,4.6-0.6,6.8-1.8
	c2.4-1.3,4-3,4.7-5.1h12.4c-1,4.6-4.4,8.3-10.2,11.3c-5,2.6-10.2,3.9-15.4,3.9c-4.5,0-8.8-1.1-12.9-3.2c-4.9-2.6-7.3-6-7.3-10.2
	l0.1-1.8l4.5-24.9c0.8-4.5,4.1-8.3,10.1-11.3c5.1-2.6,10.2-3.9,15.4-3.9c4.7,0,9,1.1,13,3.4C287.6,379.2,290,382.7,290,387"/>
<polygon class="st1" points="315.5,373.2 305.7,428.5 293.3,428.5 303,373.2 "/>
<path class="st1" d="M373.3,373.2l-8.8,49.8c-0.3,1.6-1.5,3-3.5,4.1c-1.7,1-3.5,1.4-5.3,1.4c-3.1,0-5.5-1.8-7.1-5.6l-12.4-28
	l-5.9,33.6h-12.4l8.8-49.8c0.3-1.6,1.5-3,3.5-4.1c1.7-1,3.5-1.5,5.3-1.5c3.1,0,5.5,1.8,7.1,5.5l12.4,28l5.9-33.5H373.3z"/>
<path class="st1" d="M425,373.2l-1.5,8.3h-28l-2.6,15.2h17.6l-1.5,8.3h-17.7l-2.6,15.2h28l-1.5,8.3H383c-1.7,0-3.2-0.4-4.7-1.2
	c-1.7-1-2.6-2.2-2.6-3.7l0-0.7l7.8-44.2c0.3-1.7,1.5-3,3.6-4.1c1.9-0.9,3.8-1.4,5.7-1.4H425z"/>
<path class="st1" d="M502.1,378l0,0.7l-8.8,49.8h-12.4l5.6-31.5l-18.6,25.9c-2.6,3.7-5.7,5.6-9.3,5.6c-3.5,0-6-1.9-7.3-5.6
	l-9.4-25.9l-5.6,31.5h-12.4l8.8-49.8c0.3-1.6,1.5-3,3.5-4.1c1.7-1,3.5-1.5,5.3-1.5c3.4,0,5.8,1.8,7.1,5.5l12.7,35.1l25.1-35.1
	c2.6-3.7,5.6-5.5,9.1-5.5l4.4,1.2L502.1,378"/>
<path class="st1" d="M541,407.7l-4.7-19.2l-11.5,19.2H541z M558.9,428.5H546l-3-12.4h-23.2l-7.5,12.4h-12.9l29.7-49.8
	c2.2-3.7,5.5-5.5,9.8-5.5c1.8,0,3.5,0.5,5,1.5c1.5,1,2.4,2.3,2.8,4L558.9,428.5z"/>
<path class="st1" d="M613.6,387l-0.1,1.4H601c-0.1-2.2-1.1-3.9-3.1-5.2c-1.7-1.2-3.8-1.7-6.1-1.7c-2.8,0-5.4,0.8-7.7,2.4
	c-2.8,1.8-4.2,4.1-4.2,6.7c0,1.9,1.1,3.4,3.3,4.6c1.9,1,3.9,1.4,5.9,1.4c4.5,0,8.8,1.1,12.9,3.3c4.9,2.6,7.3,6,7.3,10.2
	c0,5.6-3,10.2-9.1,13.8c-5.2,3.1-10.8,4.6-16.9,4.6c-4.6,0-9-1.1-13-3.4c-4.8-2.7-7.2-6.1-7.2-10.4l0-1.4h12.5c0,2.2,1,3.9,3.1,5.2
	c1.8,1.1,3.8,1.7,6.1,1.7c2.7,0,5.3-0.8,7.7-2.4c2.8-1.8,4.1-4.1,4.1-6.7c0-1.9-1.1-3.4-3.3-4.6c-1.9-1-3.9-1.4-6-1.4
	c-4.5,0-8.8-1.1-12.9-3.3c-4.9-2.6-7.3-6-7.3-10.2c0-5.6,3-10.2,9.1-13.8c5.2-3.1,10.9-4.6,16.9-4.6c4.7,0,9,1.1,13,3.4
	C611.2,379.2,613.6,382.7,613.6,387"/>
</svg>
