<?xml version="1.0" encoding="UTF-8"?>
<svg id="Ebene_1" xmlns="http://www.w3.org/2000/svg" version="1.1" viewBox="0 0 283.46 141.73">
  <!-- Generator: Adobe Illustrator 29.5.1, SVG Export Plug-In . SVG Version: 2.1.0 Build 141)  -->
  <defs>
    <style>
      .st0 {
        fill: none;
      }

      .st1 {
        fill: #0f05a0;
      }
    </style>
  </defs>
  <rect class="st0" x="18.91" y="24.25" width="250.1" height="81.5"/>
  <g>
    <g id="Bildmarke">
      <path class="st1" d="M101.91,80.22c-.3,0-.6.1-.9.2-.4-1.4-.8-2.8-1.1-4.2l1.6-2.2c.2-.3,2.9-3.7,2.9-6.9,0-4.7-4-4.8-4.4-4.8-1,0-2.5.4-3.4,1.6-.9,1.1-1.1,2.6-.7,4.4.1.3,1,3.9,2,7.5l-1.6,2.1-3.5-13.4,8-5.9h0c2.2-1.7,3.5-4.4,3.5-7.2,0-4.3-3-8-7.1-8.9v-.9l-1.6-.4v1l-4.6-.3h-1.5v3.7h1.5c.4,0,.8.4.8.8s-.4.8-.8.8l-5-.5.4,1.6,4.5.4h.1c1.3,0,2.3-1,2.3-2.3s-1-2.3-2.3-2.3v-.6l4.5.3v4.3c0,.5-.2.9-.5,1.2s-.8.5-1.3.4l-5.1-.3.4,1.5h0c-1.4.9-2.6,2.1-3.5,3.4l-2-4.3c.3-.5.4-1.1.4-1.6,0-2-1.6-3.6-3.6-3.6-1.3,0-2.4.6-3,1.6l.4-4.2h-32.1l.3,4.3c-.6-1-1.8-1.6-3-1.6-2,0-3.6,1.6-3.6,3.6,0,.6.1,1.1.4,1.6l-2,4.3c-.9-1.4-2.1-2.5-3.5-3.4h0l.4-1.5-5.1.3c-.5,0-.9-.1-1.3-.4-.3-.5-.4-.9-.4-1.4v-4.3l4.5-.3v.6c-1.3,0-2.3,1.1-2.3,2.3,0,1.3,1,2.3,2.3,2.3h.1l4.5-.3.4-1.6-5,.5c-.4,0-.8-.4-.8-.8s.4-.8.8-.8h1.5v-3.6h-1.5l-4.5.2v-1l-1.6.4v.8c-4.2.9-7.1,4.6-7.1,8.9,0,2.8,1.3,5.5,3.5,7.2l8,5.9-3.5,13.5-1.6-2.1c1-3.5,1.9-7.1,2-7.5.4-1.8.2-3.3-.7-4.4-.9-1.2-2.4-1.6-3.4-1.6-.5,0-4.5.2-4.5,4.9,0,3.1,2.7,6.5,2.9,6.9l1.6,2.1c-.4,1.4-.8,2.8-1.1,4.2-.2-.1-.5-.2-.8-.2-1.2,0-2.2,1-2.2,2.2s1,2.2,2.2,2.2c1,0,1.9-.7,2.1-1.6h0c.1-.5.7-2.5,1.3-4.8l1.6,2.1-4.2,15.8h0c-.1.3-.1.5-.1.8,0,2,1.6,3.6,3.6,3.6s3.6-1.6,3.6-3.6c0-.9-.3-1.7-.9-2.4l3.7-6,7.4,10.4c.7,1,1.8,1.5,3,1.5,2,0,3.6-1.6,3.6-3.6s-1.6-3.6-3.6-3.6h-.2l-5-14.2c-.5-1.3-1.6-2.2-3-2.4h-.6l3.4-7.4,4.5,3.3c.6.5,1.4.8,2.2.8.2,0,.4,0,.7-.1l1.3,13.1c.4,3.6,2.3,7.1,5.3,9.8,3.1,2.8,6.8,4.3,10.6,4.3h0c3.8,0,7.6-1.5,10.6-4.3,3-2.7,4.9-6.3,5.3-9.8l1.2-13c.2,0,.4.1.7.1.8,0,1.6-.3,2.2-.8l4.5-3.3,3.4,7.4h-.6c-1.4.2-2.5,1.1-3,2.4l-5,14.2h-.2c-2,0-3.6,1.6-3.6,3.6s1.6,3.6,3.6,3.6c1.2,0,2.3-.6,3-1.5l7.4-10.4,3.7,6c-.8.6-1.1,1.4-1.1,2.3,0,2,1.6,3.6,3.6,3.6s3.6-1.6,3.6-3.6c0-.3,0-.5-.1-.8l-4.1-15.8,1.6-2.1c.6,2.3,1.2,4.3,1.3,4.8h0c.2.9,1.1,1.6,2.1,1.6,1.2,0,2.2-1,2.2-2.2s-1-2.2-2.2-2.2ZM24.11,73.92l-.7-1h0c-.7-.9-2.5-3.6-2.5-5.7,0-2.6,1.8-2.9,2.5-2.9.6,0,1.4.2,2,.9.5.6.6,1.6.4,2.8-.2.2-.9,2.7-1.7,5.9ZM80.51,46.72c1,0,1.7.8,1.7,1.7,0,.4-.1.7-.3,1l-.3.4,3.1,6.5c-.4,1.1-.7,2.2-.7,3.4l-5-10.8c-.1-.2-.1-.4-.1-.6-.2-.8.6-1.6,1.6-1.6ZM69.81,51.52h-4.4v-2.1h4.5l-.1,2.1ZM63.91,51.52h-4.4v-2.1h4.4v2.1ZM58.01,51.52h-4.4l-.1-2.1h4.4l.1,2.1ZM52.01,51.52h-4.1l-.2-2.1h4.3v2.1ZM75.41,53.12l-.2,2.5h-27l-.2-2.5h27.4ZM75.51,51.52h-4.2l.1-2.1h4.3l-.2,2.1ZM73.11,43.82l-.1,2.7h1.5l.1-2.7h1.5l-.3,4.1h-4.4l.1-4.1h1.6ZM67.01,43.82l-.1,2.7h1.5l.1-2.7h1.5l-.1,4.1h-4.5l.1-4.1h1.5ZM60.91,43.82v2.7h1.5v-2.7h1.5v4.1h-4.5l-.1-4.1h1.6ZM54.81,43.82l.1,2.7h1.5l-.1-2.7h1.6v4.1h-4.5l-.1-4.1h1.5ZM48.71,43.82l.2,2.7h1.5l-.1-2.7h1.5l.1,4.1h-4.4l-.3-4.1s1.5,0,1.5,0ZM46.21,49.92l.6,7.2h29.8l.6-7.2,6.5,14-3.3,2.4c-.2-.1-.5-.1-.8-.1l.6-6.5h-37l.6,6.5c-.3,0-.6,0-.9.1l-3.3-2.4,6.6-14ZM47.31,68.62h3.9l2.5,2.4h-6.4c.1-.4.2-.8.2-1.2s-.1-.8-.2-1.2ZM46.31,67.12c-.1-.1-.3-.3-.5-.4l-.3-3.6,4.1,3.9h-3.3s0,.1,0,.1ZM41.81,49.92l-.3-.4c-.2-.3-.3-.7-.3-1,0-1,.8-1.7,1.7-1.7,1,0,1.7.8,1.7,1.7,0,.2,0,.4-.1.6l-5,10.8c-.1-1.2-.3-2.3-.7-3.4l3-6.6ZM34.11,78.62c.4.1,1.2.3,1.5,1.2l5.6,15.8.9-.3c.2-.1.4-.1.5-.1,1,0,1.7.8,1.7,1.7s-.8,1.7-1.7,1.7c-.6,0-1.1-.3-1.4-.7l-7.8-11.1.5-.9c.3-.6.5-1.2.5-1.8,0-1.6-1.1-3-2.6-3.4l.8-1.8c.3-.2.9-.4,1.5-.3ZM29.61,81.02l1.1,1.5h.3c.9,0,1.6.7,1.6,1.6,0,.3-.1.6-.2.8l-6.3,10,.8.5c.5.3.8.9.8,1.4,0,1-.8,1.7-1.7,1.7s-1.7-.8-1.7-1.7v-.4l8.1-30.9,3.4,2.5-6.2,13ZM43.91,71.52c-.4,0-.8-.1-1.1-.4l-19-14.1c-1.8-1.4-2.8-3.5-2.8-5.7,0-3.3,2.2-6.1,5.2-7v3.6c0,.9.4,1.7,1,2.3.6.7,1.4,1,2.2,1h.2l1.4-.1c.3.1.6.2.7.2,3.8,1.5,6.3,5.2,6.3,9.3,0,.6-.1,1.3-.2,1.9l-4-2.9-.5,2,9.3,6.9.5-.2c.4-.2.9-.2,1.4,0,.6.3,1.1.9,1.1,1.6,0,.6-.3,1.1-.8,1.4-.3.1-.6.2-.9.2ZM46.31,72.52h8.9l2.5,2.4h-11.1l-.3-2.4ZM46.71,76.42h12.6l2.5,2.4h-14.8l-.3-2.4ZM47.11,80.32h16.3l2.5,2.4h-18.6l-.2-2.4ZM47.71,86.32l-.2-2h20l2.5,2.4h-22.3v-.4ZM48.01,88.22h23.5l2.5,2.4h-25c-.4-.8-.7-1.6-1-2.4ZM61.71,98.72c-2.8,0-5.6-1-7.9-2.6h15.8c-2.3,1.6-5.1,2.6-7.9,2.6ZM71.41,94.52h-19.5c-.8-.7-1.4-1.5-2-2.4h23.6c-.6.9-1.3,1.7-2.1,2.4ZM75.71,86.32c-.1.9-.3,1.8-.6,2.7l-28.5-27.4h31.5l-.5,5.1c-1,.7-1.7,1.8-1.7,3.1,0,1,.4,2,1.1,2.6l-1.3,13.9ZM80.61,71.12h0c-.3.3-.7.4-1.1.4-.3,0-.7-.1-1-.3-.5-.3-.8-.9-.8-1.4,0-.7.4-1.3,1.1-1.6.4-.2.9-.2,1.4,0l.5.2,9.3-6.9-.5-2-4,2.9c-.1-.6-.2-1.2-.2-1.9,0-4.1,2.5-7.7,6.3-9.3.1,0,.4-.1.7-.2l1.4.1h.2c.8,0,1.6-.3,2.2-.9.6-.6,1-1.4,1-2.3v-3.6c3.1.9,5.2,3.7,5.2,7,0,2.2-1,4.3-2.8,5.7l-18.9,14.1ZM82.21,97.92c-.3.5-.9.7-1.4.7-1,0-1.7-.8-1.7-1.7s.8-1.7,1.7-1.7c.2,0,.4,0,.5.1l.9.3,5.6-15.8c.3-.9,1.1-1.1,1.5-1.2.6-.1,1.2.1,1.4.3l.8,1.8c-1.5.4-2.6,1.8-2.6,3.5,0,.6.2,1.3.5,1.8l.5.9-7.7,11ZM99.21,96.62v.4c0,1-.8,1.7-1.7,1.7s-1.7-.8-1.7-1.7c0-.6.3-1.1.8-1.4l.8-.5-6.3-10c-.2-.3-.2-.5-.2-.8,0-.9.7-1.6,1.6-1.6h.3l1.1-1.5-6-12.9,3.4-2.5,7.9,30.8ZM97.71,67.92c-.3-1.3-.2-2.2.4-2.8.5-.6,1.4-.9,2-.9.8,0,2.5.3,2.5,2.9s-2.5,5.6-2.5,5.7l-.8,1c-.8-3.1-1.5-5.6-1.6-5.9Z"/>
    </g>
    <g id="Stadt_Zürich">
      <g>
        <path class="st1" d="M131.11,43.42c2.2,0,3.9.5,5.2,1.5,1.3,1,1.9,2.4,1.9,4.2h-3.8c0-.9-.4-1.6-.9-2-.6-.4-1.4-.7-2.6-.7-.8,0-1.5.2-2,.5s-.8.9-.8,1.5c0,.5.2.9.5,1.1.3.2.7.4,1.3.6.6.2,1.6.4,3,.8,1.5.4,2.6.8,3.4,1.2s1.4,1,1.8,1.7.6,1.5.6,2.5c0,1.1-.3,2.1-.9,3s-1.5,1.6-2.6,2-2.4.7-3.9.7c-2.2,0-4-.6-5.5-1.7-1.4-1.1-2.1-2.6-2.1-4.6v-.1h3.8c0,1,.4,1.9,1.1,2.4.7.6,1.7.9,2.8.9,1,0,1.9-.2,2.5-.6s1-.9,1-1.7c0-.5-.2-.9-.5-1.2s-.8-.6-1.4-.8-1.6-.5-2.9-.8c-1.6-.4-2.8-.8-3.5-1.3s-1.3-1-1.7-1.6c-.4-.6-.6-1.4-.6-2.3,0-1.1.3-2.1,1-2.9.6-.8,1.5-1.4,2.5-1.8,1.1-.3,2.2-.5,3.3-.5Z"/>
        <path class="st1" d="M145.31,44.92v3.9h2.6v2.4h-2.6v6.4c0,.6.1,1,.3,1.2.2.2.6.3,1.2.3.4,0,.8,0,1.1-.1v2.8c-.5.1-1.2.1-2.1.1-1.4,0-2.4-.2-3-.7-.7-.5-1-1.3-1-2.4v-7.7h-2.1v-2.4h2.1v-3.8h3.5Z"/>
        <path class="st1" d="M156.01,48.42c3.8,0,5.6,1.2,5.6,3.7v6.8c0,1.3.1,2.2.5,2.7h-3.6c-.1-.4-.2-.8-.2-1.2-1,1.1-2.5,1.6-4.3,1.6-1.3,0-2.4-.3-3.2-1s-1.2-1.6-1.2-2.8.4-2.1,1.1-2.7c.8-.7,2.2-1.1,4.2-1.3,1.4-.1,2.3-.3,2.7-.6.4-.2.6-.6.6-1,0-.6-.2-1-.5-1.3-.4-.3-.9-.4-1.8-.4-.7,0-1.3.2-1.7.5s-.6.8-.7,1.5h-3.6c.1-1.4.7-2.5,1.8-3.2,1-.9,2.5-1.3,4.3-1.3ZM153.01,58.02c0,1.1.7,1.6,2.2,1.6,1.9,0,2.9-1,2.9-2.9v-1.4c-.3.3-1,.5-2.1.6-1,.1-1.7.3-2.2.6-.5.4-.8.8-.8,1.5Z"/>
        <path class="st1" d="M176.91,43.82v17.8h-3.4v-1.6h0c-.8,1.3-2.1,2-3.9,2s-3.2-.6-4.2-1.9-1.6-3-1.6-5,.5-3.6,1.6-4.8,2.4-1.9,4.1-1.9c.8,0,1.5.2,2.2.5s1.2.8,1.6,1.4h.1v-6.5h3.5ZM167.31,55.22c0,1.2.3,2.2.8,3,.6.8,1.3,1.2,2.3,1.2s1.8-.4,2.3-1.1.8-1.8.8-3.1-.3-2.3-.8-3-1.3-1.1-2.3-1.1-1.8.4-2.3,1.1c-.5.7-.8,1.7-.8,3Z"/>
        <path class="st1" d="M184.41,44.92v3.9h2.6v2.4h-2.6v6.4c0,.6.1,1,.3,1.2s.6.3,1.2.3c.4,0,.8,0,1.1-.1v2.8c-.5.1-1.2.1-2.1.1-1.4,0-2.4-.2-3-.7-.7-.5-1-1.3-1-2.4v-7.7h-2.1v-2.4h2.1v-3.8h3.5Z"/>
        <path class="st1" d="M208.91,43.82v3.1l-9.6,11.4h9.8v3.3h-15v-3.1l9.6-11.4h-8.8v-3.3h14Z"/>
        <path class="st1" d="M214.51,48.72v7.3c0,1,.2,1.8.5,2.3s.9.8,1.8.8c1,0,1.7-.3,2.1-.9.4-.6.6-1.5.6-2.8v-6.7h3.5v12.9h-3.4v-1.8h-.1c-.9,1.4-2.2,2.1-4,2.1-1.7,0-2.9-.4-3.6-1.3-.7-.9-1.1-2.2-1.1-4v-8l3.7.1h0ZM216.21,43.82v2.9h-3.4v-2.9h3.4ZM221.31,43.82v2.9h-3.4v-2.9h3.4Z"/>
        <path class="st1" d="M233.61,48.42c.3,0,.6,0,.8.1v3.3c-.4-.1-.8-.1-1.3-.1-2.3,0-3.5,1.4-3.5,4.1v5.8h-3.5v-12.9h3.4v2.4h0c.3-.8.9-1.5,1.7-2,.7-.5,1.5-.7,2.4-.7Z"/>
        <path class="st1" d="M239.81,43.82v2.9h-3.5v-2.9h3.5ZM239.81,48.72v12.9h-3.5v-12.9h3.5Z"/>
        <path class="st1" d="M248.61,48.42c1.8,0,3.2.4,4.3,1.3,1.1.9,1.7,2.1,1.8,3.6h-3.5c-.2-1.5-1.1-2.2-2.6-2.2-.9,0-1.7.4-2.2,1.1-.5.8-.8,1.8-.8,3s.3,2.2.8,2.9,1.2,1.1,2.2,1.1c1.6,0,2.6-.9,2.8-2.6h3.4c-.2,1.7-.9,3-2,3.9s-2.5,1.4-4.2,1.4c-1.9,0-3.5-.6-4.7-1.8-1.2-1.2-1.8-2.8-1.8-4.8,0-2.1.6-3.8,1.8-5.1,1.1-1.2,2.7-1.8,4.7-1.8Z"/>
        <path class="st1" d="M260.41,43.82v6.7h.1c.4-.7.9-1.2,1.6-1.6.7-.4,1.4-.6,2.2-.6,1.6,0,2.8.4,3.6,1.2.7.8,1.1,2.1,1.1,3.9v8.1h-3.5v-7.3c0-1-.2-1.8-.5-2.3s-.9-.8-1.8-.8c-1,0-1.6.3-2.1.9-.4.6-.7,1.5-.7,2.8v6.8h-3.5v-17.8c-.1,0,3.5,0,3.5,0Z"/>
      </g>
    </g>
  </g>
</svg>