<?xml version="1.0" encoding="UTF-8" standalone="no"?>
<!-- Created with Inkscape (http://www.inkscape.org/) -->

<svg
   xmlns:dc="http://purl.org/dc/elements/1.1/"
   xmlns:cc="http://creativecommons.org/ns#"
   xmlns:rdf="http://www.w3.org/1999/02/22-rdf-syntax-ns#"
   xmlns:svg="http://www.w3.org/2000/svg"
   xmlns="http://www.w3.org/2000/svg"
   xmlns:sodipodi="http://sodipodi.sourceforge.net/DTD/sodipodi-0.dtd"
   xmlns:inkscape="http://www.inkscape.org/namespaces/inkscape"
   width="992.09998"
   height="520"
   id="svg3724"
   version="1.1"
   inkscape:version="0.48.4 r9939"
   sodipodi:docname="Neues Dokument 3">
  <defs
     id="defs3726" />
  <sodipodi:namedview
     id="base"
     pagecolor="#ffffff"
     bordercolor="#666666"
     borderopacity="1.0"
     inkscape:pageopacity="0.0"
     inkscape:pageshadow="2"
     inkscape:zoom="1.55"
     inkscape:cx="496.04999"
     inkscape:cy="260"
     inkscape:document-units="px"
     inkscape:current-layer="layer1"
     showgrid="false"
     fit-margin-top="0"
     fit-margin-left="0"
     fit-margin-right="0"
     fit-margin-bottom="0"
     inkscape:window-width="1680"
     inkscape:window-height="990"
     inkscape:window-x="-4"
     inkscape:window-y="-4"
     inkscape:window-maximized="1" />
  <metadata
     id="metadata3729">
    <rdf:RDF>
      <cc:Work
         rdf:about="">
        <dc:format>image/svg+xml</dc:format>
        <dc:type
           rdf:resource="http://purl.org/dc/dcmitype/StillImage" />
        <dc:title></dc:title>
      </cc:Work>
    </rdf:RDF>
  </metadata>
  <g
     inkscape:label="Ebene 1"
     inkscape:groupmode="layer"
     id="layer1"
     transform="translate(-438.78536,73.62298)">
    <g
       id="g112"
       transform="matrix(15.839527,0,0,-15.839527,448.78362,359.08013)">
      <path
         inkscape:connector-curvature="0"
         d="m 0,0 c 0.826,-0.476 1.714,-0.661 2.648,-0.661 1.696,0 3.329,0.91 3.329,2.791 0,3.02 -4.655,2.959 -4.655,4.738 0,0.847 0.56,1.469 1.427,1.469 1.386,0 2.215,-1.201 2.461,-2.441 l 0.333,0 0,2.193 C 4.674,8.4 3.764,8.728 2.833,8.728 1.446,8.728 0.022,7.945 0.022,6.393 0.022,4.944 1.034,4.449 2.191,3.788 3.122,3.25 4.406,2.854 4.406,1.595 c 0,-1.181 -0.599,-1.864 -1.801,-1.864 -1.571,0 -1.985,1.49 -2.358,2.711 L 0,2.442 0,0 z m 11.871,-0.433 0,0.392 c -0.866,0.063 -1.137,0.063 -1.137,1.138 l 0,7.739 C 9.803,8.484 8.876,8.11 7.983,7.739 l 0,-0.208 C 8.273,7.491 8.457,7.468 8.728,7.323 9.101,7.076 9.101,6.496 9.101,6.063 l 0,-4.966 c 0,-1.075 -0.268,-1.075 -1.199,-1.138 l 0,-0.392 3.969,0 z M 9.825,14.025 c -0.58,0 -1.075,-0.472 -1.075,-1.054 0,-0.579 0.495,-1.076 1.075,-1.076 0.579,0 0.993,0.538 0.993,1.076 0,0.517 -0.457,1.054 -0.993,1.054 m 7.714,-14.458 0,0.392 C 16.67,0.022 16.405,0.022 16.405,1.097 l 0,5.483 c 0.576,0.599 0.969,1.303 2.168,1.303 0.767,0 1.346,-0.455 1.677,-1.054 0.29,-0.622 0.29,-0.91 0.29,-1.576 l 0,-4.156 c 0,-1.075 -0.269,-1.075 -1.116,-1.138 l 0,-0.392 3.929,0 0,0.392 c -0.91,0.063 -1.178,0.063 -1.178,1.138 l 0,4.156 c 0,0.81 -0.084,1.492 -0.517,2.215 -0.476,0.829 -1.365,1.26 -2.318,1.26 -1.283,0 -2.047,-0.639 -2.935,-1.466 l 0,6.763 c -0.891,-0.35 -1.803,-0.683 -2.692,-1.054 l 0,-0.165 c 0.539,-0.125 1.056,-0.311 1.056,-0.953 l 0,-10.756 c 0,-1.075 -0.271,-1.075 -1.199,-1.138 l 0,-0.392 3.969,0 z m 10.448,14.458 c -0.911,-0.288 -1.839,-0.702 -2.812,-0.951 l 0,-0.249 c 0.434,-0.019 0.702,-0.144 0.888,-0.31 0.29,-0.288 0.29,-0.786 0.29,-1.301 l 0,-10.117 c 0,-1.075 -0.268,-1.075 -1.199,-1.138 l 0,-0.392 3.97,0 0,0.392 c -0.867,0.063 -1.137,0.063 -1.137,1.138 l 0,12.928 z M 38.29,2.378 C 37.773,1.283 36.779,0.414 35.495,0.414 c -2.15,0 -3.103,2.069 -3.103,3.972 0,1.656 0.642,3.951 2.691,3.951 2.297,0 1.157,-2.585 2.585,-2.585 0.538,0 0.765,0.352 0.765,0.847 0,1.449 -2.214,2.129 -3.371,2.129 -2.442,0 -4.425,-2.066 -4.425,-4.506 0,-2.524 1.384,-4.883 4.133,-4.883 2.028,0 3.084,1.178 3.829,2.938 L 38.29,2.378 z m 12.06,5.09 0.493,1.035 -3.059,0 0,1.676 -0.041,0 C 46.936,9.269 45.983,8.503 45.114,7.655 l 0,-0.187 1.075,0 0,-5.667 c 0,-1.344 0.623,-2.462 2.112,-2.462 0.869,0 1.779,0.414 2.337,1.075 0.187,0.184 0.661,0.498 0.246,0.704 -0.452,-0.29 -1.113,-0.744 -1.673,-0.744 -1.137,0 -1.427,0.597 -1.427,1.635 l 0,5.459 2.566,0 z m 1.073,0.642 c 0.975,-0.165 0.829,-0.187 1.346,-1.077 l 4.013,-7.32 -0.642,-2.05 c -0.143,-0.434 -0.392,-1.053 -0.972,-0.992 -0.228,0.02 -0.433,0.104 -0.661,0.125 -0.498,-0.021 -0.787,-0.354 -0.787,-0.852 0,-0.432 0.332,-0.824 0.787,-0.824 1.179,0 1.612,1.197 1.964,2.169 l 3.331,9.559 c 0.308,0.91 0.579,1.262 1.57,1.262 l 0,0.393 -3.495,0 0,-0.393 c 0.538,-0.021 1.47,0 1.47,-0.682 0,-0.208 -0.081,-0.56 -0.228,-1.015 L 57.465,1.635 54.629,6.911 c -0.165,0.309 -0.248,0.557 -0.248,0.62 0,0.579 1.118,0.579 1.532,0.579 l 0,0.393 -4.49,0 0,-0.393 z"
         style="fill:#000000;fill-opacity:1;fill-rule:nonzero;stroke:none"
         id="path114" />
    </g>
    <path
       inkscape:connector-curvature="0"
       d="m 1107.2343,-63.622981 16.9641,0 7.1595,431.025201 -31.2831,0 7.1595,-431.025201 z"
       style="fill:#000000;fill-opacity:1;fill-rule:nonzero;stroke:none"
       id="path118" />
  </g>
</svg>
